<svg width="1771" height="1677" viewBox="0 0 1771 1677" fill="none" xmlns="http://www.w3.org/2000/svg">
<path d="M1037.7 1.23096L528.086 376.335M1037.7 1.23096L1431.14 404.021M1037.7 1.23096L968.637 395.291M1769.92 904.728L1431.14 404.021M1769.92 904.728L1575.09 1290.11M1769.92 904.728L1430.33 823.139M1380.26 1675.48L810.721 1254.36M1380.26 1675.48L1575.09 1290.11M1380.26 1675.48L1132.98 1264.41M528.086 376.335L1.4646 801.961L810.721 1254.36M528.086 376.335L810.721 1254.36M528.086 376.335L968.637 395.291M1431.14 404.021L968.637 395.291M1431.14 404.021L1162.6 874.747M1431.14 404.021L1430.33 823.139M810.721 1254.36L1162.6 874.747M810.721 1254.36L968.637 395.291M810.721 1254.36L1132.98 1264.41M1575.09 1290.11L1162.6 874.747M1575.09 1290.11L1132.98 1264.41M1575.09 1290.11L1430.33 823.139M968.637 395.291L1162.6 874.747"/>
</svg>
